Patient4_TMGait_0pt8_01_right_10_GRF.mot
version=1
nRows=71
nColumns=19
inDegrees=no
endheader
time	F1x	F1y	F1z	M1x	M1y	M1z	F2x	F2y	F2z	M2x	M2y	M2z	EC1x	EC1y	EC1z	EC2x	EC2y	EC2z
10.94	-8.2472	748.7798	81.7388	-263.5893	-86.0087	837.6952	0.52397	8.9691	-4.6595	4.3904	0.49551	-0.11034	-0.0592	0.0182	-0.0073	-0.0462	0.0165	0.9585
10.9516	-8.7698	741.7272	79.7689	-260.2088	-85.1071	823.5558	0.19355	6.9256	-3.3043	3.2983	0.53848	1.1807	-0.0592	0.0182	-0.0073	-0.0462	0.0165	0.9585
10.9633	-8.3395	733.5828	77.8218	-256.4305	-83.5791	807.9782	-0.064142	5.2056	-2.1121	2.3728	0.53804	2.2714	-0.0592	0.0182	-0.0073	-0.0462	0.0165	0.9585
10.9749	-6.9079	725.0095	75.9902	-252.5571	-81.4636	791.93	-0.25537	3.9166	-1.1764	1.6726	0.5167	3.1285	-0.0592	0.0182	-0.0073	-0.0462	0.0165	0.9585
10.9866	-4.5974	716.7841	74.3176	-248.9106	-78.8818	776.3571	-0.37044	3.0469	-0.50532	1.1982	0.48415	3.7483	-0.0592	0.0182	-0.0073	-0.0462	0.0165	0.9585
10.9982	-1.5538	709.6217	72.8125	-245.7791	-75.9622	762.024	-0.42994	2.5378	-0.078378	0.91778	0.46419	4.159	-0.0592	0.0182	-0.0073	-0.0462	0.0165	0.9585
11.0099	2.0493	704.1114	71.4676	-243.3887	-72.8315	749.5143	-0.45705	2.278	0.14567	0.77733	0.47041	4.368	-0.0592	0.0182	-0.0073	-0.0462	0.0165	0.9585
11.0215	6.0915	700.6024	70.2711	-241.8703	-69.5892	739.1181	-0.45721	2.1633	0.21007	0.7205	0.51219	4.4085	-0.0592	0.0182	-0.0073	-0.0462	0.0165	0.9585
11.0331	10.5064	699.2397	69.199	-241.2697	-66.2931	730.9271	-0.45266	2.0572	0.15768	0.68449	0.59344	4.2411	-0.0592	0.0182	-0.0073	-0.0462	0.0165	0.9585
11.0448	15.2777	700.0135	68.2562	-241.5682	-62.9952	724.8533	-0.45778	1.8358	0.021329	0.60972	0.71816	3.8089	-0.0592	0.0182	-0.0073	-0.0462	0.0165	0.9585
11.0564	20.4161	702.7902	67.4567	-242.6939	-59.7341	720.714	-0.46831	1.3679	-0.16484	0.43681	0.8776	3.021	-0.0592	0.0182	-0.0073	-0.0462	0.0165	0.9585
11.0681	25.9411	707.3574	66.8745	-244.5338	-56.5888	718.2748	-0.48897	0.52309	-0.37478	0.1117	1.0616	1.7669	-0.0592	0.0182	-0.0073	-0.0462	0.0165	0.9585
11.0797	31.8032	713.4593	66.5981	-246.9529	-53.6595	717.2869	-0.50477	-0.7793	-0.58382	-0.40025	1.2463	-0.034	-0.0592	0.0182	-0.0073	-0.0462	0.0165	0.9585
11.0914	37.9125	720.9104	66.764	-249.8356	-51.1001	717.6071	-0.50247	-2.5838	-0.75296	-1.1137	1.382	-2.4309	-0.0592	0.0182	-0.0073	-0.0462	0.0165	0.9585
11.103	44.1028	729.6716	67.4729	-253.1167	-49.0502	719.2805	-0.46386	-4.8253	-0.83104	-2.0009	1.4005	-5.3357	-0.0592	0.0182	-0.0073	-0.0462	0.0165	0.9585
11.1146	50.1312	739.7725	68.7991	-256.7582	-47.6513	722.4416	-0.35488	-7.2741	-0.73994	-2.9642	1.1923	-8.4616	-0.0592	0.0182	-0.0073	-0.0462	0.0165	0.9585
11.1263	55.7227	751.1873	70.7372	-260.708	-46.9776	727.178	-0.13842	-9.4586	-0.40283	-3.8069	0.6442	-11.2179	-0.0592	0.0182	-0.0073	-0.0462	0.0165	0.9585
11.1379	60.5986	763.5762	73.2121	-264.8193	-47.0373	733.2729	0.22353	-10.5559	0.28815	-4.1914	-0.38857	-12.5983	-0.0592	0.0182	-0.0073	-0.0462	0.0165	0.9585
11.1496	64.5618	776.1472	76.0692	-268.8114	-47.7401	740.0502	0.74887	-9.3156	1.4326	-3.613	-2.0334	-11.0613	-0.0592	0.0182	-0.0073	-0.0462	0.0165	0.9585
11.1612	67.5504	787.7127	79.0744	-272.288	-48.8864	746.4257	1.4467	-4.05	3.1233	-1.3916	-4.397	-4.5117	-0.0592	0.0182	-0.0073	-0.0462	0.0165	0.9585
11.1729	69.6192	796.7971	81.9184	-274.7798	-50.1803	751.0021	2.272	7.3433	5.3774	3.3081	-7.4738	9.6602	-0.0592	0.0182	-0.0073	-0.0462	0.0165	0.9585
11.1845	70.9361	801.9292	84.2338	-275.8385	-51.2464	752.3454	3.1201	27.1552	8.1074	11.3871	-11.0895	34.2897	-0.0592	0.0182	-0.0073	-0.0462	0.0165	0.9585
11.1961	71.7541	801.7008	85.6581	-275.0557	-51.6913	749.047	3.7706	57.4652	11.0007	23.6414	-14.7454	71.9666	-0.0592	0.0182	-0.0073	-0.0462	0.0165	0.9585
11.2078	72.3117	794.7453	85.8611	-272.0429	-51.1602	739.7404	3.7679	99.5019	13.4578	40.5058	-17.4941	124.2023	-0.0592	0.0182	-0.0073	-0.0462	0.0165	0.9585
11.2194	72.7529	779.6203	84.5673	-266.3778	-49.3828	723.023	2.1088	152.7275	14.6018	61.6842	-17.8454	190.309	-0.0592	0.0182	-0.0073	-0.0462	0.0165	0.9585
11.2311	73.0175	754.765	81.5625	-257.5749	-46.2185	697.456	-2.6099	213.7311	13.2829	85.7196	-13.8649	266.0069	-0.0592	0.0182	-0.0073	-0.0462	0.0165	0.9585
11.2427	72.7783	718.6686	76.7583	-245.136	-41.7358	661.7283	-10.896	276.3549	8.4807	110.1141	-4.2745	343.5837	-0.0592	0.0182	-0.0073	-0.0462	0.0165	0.9585
11.2544	71.5342	670.3942	70.2212	-228.7266	-36.1991	615.1273	-21.4588	335.416	0.46581	132.8257	9.9928	416.3719	-0.0592	0.0182	-0.0073	-0.0462	0.0165	0.9585
11.266	68.7172	610.1539	62.237	-208.3681	-30.0705	558.0014	-32.7152	389.6101	-9.4989	153.3357	26.7697	482.5358	-0.0592	0.0182	-0.0073	-0.0462	0.0165	0.9585
11.2776	63.8758	539.4725	53.3044	-184.5094	-23.9327	491.8705	-43.038	439.632	-20.3034	171.9547	44.072	542.6882	-0.0592	0.0182	-0.0073	-0.0462	0.0165	0.9585
11.2893	56.8331	461.1769	44.0464	-158.0366	-18.3645	419.3906	-51.3231	486.7802	-30.824	189.2316	60.1007	598.3725	-0.0592	0.0182	-0.0073	-0.0462	0.0165	0.9585
11.3009	47.6918	379.1748	35.06	-130.2232	-13.8148	344.1304	-56.9018	531.7758	-40.1905	205.4966	73.562	650.4805	-0.0592	0.0182	-0.0073	-0.0462	0.0165	0.9585
11.3126	36.9718	298.0852	26.8643	-102.6158	-10.5239	270.2135	-59.8277	574.4591	-47.982	220.7153	83.9511	698.9914	-0.0592	0.0182	-0.0073	-0.0462	0.0165	0.9585
11.3242	25.6441	222.6122	19.779	-76.8236	-8.4073	201.7712	-60.4622	614.1247	-54.1597	234.6219	91.3745	743.2189	-0.0592	0.0182	-0.0073	-0.0462	0.0165	0.9585
11.3359	14.9956	156.6816	13.9712	-54.2163	-7.1477	142.1787	-59.476	649.8977	-59.0738	246.858	96.4944	782.3635	-0.0592	0.0182	-0.0073	-0.0462	0.0165	0.9585
11.3475	6.1893	102.6603	9.441	-35.6368	-6.3327	93.4246	-57.4428	680.8137	-63.1308	257.0476	100.0365	815.4535	-0.0592	0.0182	-0.0073	-0.0462	0.0165	0.9585
11.3591	-0.10742	61.1035	6.0604	-21.3057	-5.6205	55.9027	-54.9101	706.0881	-66.722	264.8893	102.6773	841.7485	-0.0592	0.0182	-0.0073	-0.0462	0.0165	0.9585
11.3708	-3.8626	31.2149	3.6064	-10.9697	-4.8029	28.8646	-52.2493	725.1476	-69.9596	270.2066	104.7283	860.6834	-0.0592	0.0182	-0.0073	-0.0462	0.0165	0.9585
11.3824	-5.4294	11.3455	1.8698	-4.0773	-3.8249	10.8325	-49.7782	737.9604	-72.8017	273.042	106.2856	872.3212	-0.0592	0.0182	-0.0073	-0.0462	0.0165	0.9585
11.3941	-5.4641	-0.51946	0.69503	0.055145	-2.7851	0.026261	-47.594	744.9603	-75.118	273.6348	107.274	877.1968	-0.0592	0.0182	-0.0073	-0.0462	0.0165	0.9585
11.4057	-4.6719	-6.3973	-0.0021583	2.1203	-1.8642	-5.3499	-45.7576	746.9794	-76.7612	272.3792	107.5778	876.3248	-0.0592	0.0182	-0.0073	-0.0462	0.0165	0.9585
11.4174	-3.535	-8.2508	-0.32531	2.7866	-1.1498	-7.039	-44.1698	744.9812	-77.7301	269.7158	107.1901	870.8076	-0.0592	0.0182	-0.0073	-0.0462	0.0165	0.9585
11.429	-2.379	-7.6536	-0.42196	2.5975	-0.62629	-6.4641	-42.8004	739.916	-78.0863	266.0677	106.1898	861.7223	-0.0592	0.0182	-0.0073	-0.0462	0.0165	0.9585
11.4406	-1.378	-5.8276	-0.36048	1.9774	-0.29733	-4.7507	-41.5485	732.6702	-77.937	261.8261	104.6807	850.0248	-0.0592	0.0182	-0.0073	-0.0462	0.0165	0.9585
11.4523	-0.60234	-3.5888	-0.24892	1.2109	-0.092188	-2.6481	-40.3898	724.1745	-77.352	257.375	102.7537	836.7438	-0.0592	0.0182	-0.0073	-0.0462	0.0165	0.9585
11.4639	-0.064716	-1.4319	-0.10224	0.47187	-0.0069552	-0.62716	-39.2998	715.2474	-76.3998	253.0513	100.4968	822.7642	-0.0592	0.0182	-0.0073	-0.0462	0.0165	0.9585
11.4756	0.25111	0.36887	0.025708	-0.1466	0.011542	1.0607	-38.2454	706.6817	-75.1255	249.1628	97.9643	808.9588	-0.0592	0.0182	-0.0073	-0.0462	0.0165	0.9585
11.4872	0.4148	1.7404	0.13905	-0.61593	-0.022883	2.3313	-37.1512	699.0977	-73.5731	245.9454	95.1896	795.9649	-0.0592	0.0182	-0.0073	-0.0462	0.0165	0.9585
11.4989	0.46069	2.6938	0.21651	-0.94129	-0.07807	3.1964	-35.9247	692.97	-71.7708	243.5703	92.1766	784.2511	-0.0592	0.0182	-0.0073	-0.0462	0.0165	0.9585
11.5105	0.44331	3.29	0.26829	-1.1461	-0.14356	3.7005	-34.3683	688.6331	-69.7211	242.1528	88.8667	774.0981	-0.0592	0.0182	-0.0073	-0.0462	0.0165	0.9585
11.5221	0.37708	3.6269	0.3024	-1.2645	-0.21701	3.9507	-32.3189	686.3154	-67.4231	241.765	85.1987	765.6591	-0.0592	0.0182	-0.0073	-0.0462	0.0165	0.9585
11.5338	0.29328	3.7531	0.32429	-1.3158	-0.29136	3.987	-29.5862	686.2399	-64.8763	242.4732	81.1027	759.0562	-0.0592	0.0182	-0.0073	-0.0462	0.0165	0.9585
11.5454	0.19426	3.7455	0.35193	-1.3224	-0.37894	3.9079	-26.0334	688.7315	-62.1193	244.365	76.5581	754.5565	-0.0592	0.0182	-0.0073	-0.0462	0.0165	0.9585
11.5571	0.10256	3.6303	0.37713	-1.2934	-0.46242	3.7287	-21.5389	694.1274	-59.2208	247.5214	71.5775	752.4393	-0.0592	0.0182	-0.0073	-0.0462	0.0165	0.9585
11.5687	-0.0077995	3.439	0.41439	-1.2331	-0.55943	3.4963	-16.0573	702.7143	-56.3344	251.9806	66.2771	752.9874	-0.0592	0.0182	-0.0073	-0.0462	0.0165	0.9585
11.5804	-0.11693	3.1432	0.45976	-1.1304	-0.65903	3.1586	-9.6718	714.4892	-53.6412	257.6626	60.8472	756.2539	-0.0592	0.0182	-0.0073	-0.0462	0.0165	0.9585
11.592	-0.2639	2.7002	0.52899	-0.96439	-0.79129	2.6668	-2.6538	729.0532	-51.3887	264.3251	55.608	761.9848	-0.0592	0.0182	-0.0073	-0.0462	0.0165	0.9585
11.6036	-0.42657	2.0191	0.62878	-0.70195	-0.96588	1.8822	4.5824	745.4588	-49.7941	271.5218	50.906	769.4373	-0.0592	0.0182	-0.0073	-0.0462	0.0165	0.9585
11.6153	-0.60951	1.0223	0.76234	-0.31013	-1.19	0.71712	11.546	762.1843	-49.0276	278.6049	47.0684	777.3365	-0.0592	0.0182	-0.0073	-0.0462	0.0165	0.9585
11.6269	-0.76447	-0.35902	0.92103	0.23608	-1.4378	-0.94396	17.8604	777.4551	-49.1632	284.8529	44.2946	784.1472	-0.0592	0.0182	-0.0073	-0.0462	0.0165	0.9585
11.6386	-0.85702	-2.1169	1.0691	0.93195	-1.6504	-3.0836	23.3342	789.6597	-50.1525	289.6378	42.5974	788.4423	-0.0592	0.0182	-0.0073	-0.0462	0.0165	0.9585
11.6502	-0.77145	-4.1395	1.1607	1.7278	-1.7271	-5.5826	27.9343	797.6967	-51.8503	292.5542	41.8476	789.2355	-0.0592	0.0182	-0.0073	-0.0462	0.0165	0.9585
11.6619	-0.41126	-6.1166	1.0977	2.4963	-1.5057	-8.0628	31.7151	801.0566	-54.0505	293.4427	41.8391	786.0842	-0.0592	0.0182	-0.0073	-0.0462	0.0165	0.9585
11.6735	0.41253	-7.5013	0.77278	3.0126	-0.77623	-9.8511	34.7079	799.7149	-56.5511	292.3454	42.3815	778.9855	-0.0592	0.0182	-0.0073	-0.0462	0.0165	0.9585
11.6851	1.8642	-7.3909	0.026338	2.9229	0.72673	-9.8035	36.9683	794.0358	-59.157	289.4601	43.2871	768.2821	-0.0592	0.0182	-0.0073	-0.0462	0.0165	0.9585
11.6968	4.1395	-4.5124	-1.2967	1.7322	3.2751	-6.358	38.5535	784.6449	-61.7003	285.0884	44.3929	754.5376	-0.0592	0.0182	-0.0073	-0.0462	0.0165	0.9585
11.7084	7.3417	2.8076	-3.3693	-1.2024	7.1204	2.5718	39.5671	772.3705	-63.9929	279.6078	45.501	738.4765	-0.0592	0.0182	-0.0073	-0.0462	0.0165	0.9585
11.7201	11.4583	16.4805	-6.285	-6.6136	12.3702	19.3493	40.1908	758.1698	-65.8437	273.4343	46.3824	720.9345	-0.0592	0.0182	-0.0073	-0.0462	0.0165	0.9585
11.7317	16.1704	38.402	-10.0204	-15.2175	18.8616	46.3486	40.6629	742.9526	-67.0544	266.961	46.7775	702.6755	-0.0592	0.0182	-0.0073	-0.0462	0.0165	0.9585
11.7434	20.7946	69.8919	-14.2986	-27.498	25.9589	85.2387	41.2182	727.433	-67.4612	260.495	46.459	684.2812	-0.0592	0.0182	-0.0073	-0.0462	0.0165	0.9585
11.755	23.9871	110.9618	-18.4673	-43.4166	32.3129	136.1209	42.0317	711.9219	-66.93	254.1805	45.2432	666.003	-0.0592	0.0182	-0.0073	-0.0462	0.0165	0.9585
